<svg xmlns="http://www.w3.org/2000/svg" version="1.1" xmlns:xlink="http://www.w3.org/1999/xlink" xmlns:svgjs="http://svgjs.dev/svgjs" width="100%" height="100%" viewBox="0 0 1000 600"><rect width="1000" height="600" x="0" y="0" fill="#ffffff"/><g><circle r="166.66666666666666" cx="432.4041544596354" cy="454.62637649408225" fill="#A8DCAB  " transform="matrix(0.47038899730735984,0,0,0.47038899730735984,0,86.14875273746719)"/><path d="M374.8245696462581 379.6263367250151L374.8245696462581 529.6263407491147L394.60382393738274 529.6263407491147L394.60382393738274 460.3842994307034L470.2045292279037 460.3842994307034L470.2045292279037 529.6263407491147L489.98378351902846 529.6263407491147L489.98378351902846 379.6263367250151L470.2045292279037 379.6263367250151L470.2045292279037 444.12135701355646L394.60382393738274 444.12135701355646L394.60382393738274 379.6263367250151L374.8245696462581 379.6263367250151Z " fill=" #E0CD95  " transform="matrix(0.47038899730735984,0,0,0.47038899730735984,0,86.14875273746719)"/><path d="M682.4041747634205 385.70596294667763L682.4041747634205 496.45886864735206L697.0082402738631 496.45886864735206L697.0082402738631 445.33382153449924L752.8282240026656 445.33382153449924L752.8282240026656 496.45886864735206L767.4322895131081 496.45886864735206L767.4322895131081 385.70596294667763L752.8282240026656 385.70596294667763L752.8282240026656 433.3260343370243L697.0082402738631 433.3260343370243L697.0082402738631 385.70596294667763L682.4041747634205 385.70596294667763ZM786.8394699025406 455.24295042899206L786.8394699025406 457.66614352109514Q786.8394699025406 475.77518475404383 796.7485987970334 487.2637162889253Q806.6793633441343 498.7306121711987 825.3292958922847 498.7306121711987L825.3292958922847 498.7306121711987Q836.7312848167338 498.7306121711987 844.671569323893 493.79768337656037Q852.6334894836601 488.8431189293139 856.4197286900711 483.1529422933933L856.4197286900711 483.1529422933933L847.3111189420766 475.9266343223003Q843.8710501773946 480.4917570226016 838.3972300675547 483.82364752424326Q832.9234099577147 487.1771736784931 825.3292958922847 487.1771736784931L825.3292958922847 487.1771736784931Q812.9969739056887 487.1771736784931 807.1337120489037 478.6310908983082Q801.2920858447267 470.0633724655152 801.2920858447267 457.66614352109514L801.2920858447267 457.66614352109514L801.2920858447267 455.24295042899206Q801.2920858447267 442.82408583196394 806.8308129123908 434.278003051779Q812.391175632663 425.71028461898607 823.6417149888557 425.71028461898607L823.6417149888557 425.71028461898607Q832.9234099577147 425.71028461898607 837.8779744049612 431.81153865445987Q842.8109031995996 437.89115703732557 842.8109031995996 446.5670537331588L842.8109031995996 446.5670537331588L842.8109031995996 448.3844485522361L795.4937309457658 448.3844485522361L795.4937309457658 459.6349879084289L857.047162615705 459.6349879084289L857.047162615705 453.85826866207606Q857.047162615705 435.5977778608709 848.2198163516153 424.88812981987974Q839.3924700875256 414.15684612628047 823.03591671583 414.15684612628047L823.03591671583 414.15684612628047Q806.6793633441343 414.15684612628047 796.7485987970334 425.6453776611619Q786.8394699025406 437.13390919604336 786.8394699025406 455.24295042899206L786.8394699025406 455.24295042899206ZM869.9636472227186 472.8760073045634L869.9636472227186 472.8760073045634Q869.9636472227186 485.05687972290286 877.9472030350938 491.50430420010565Q885.9307588474691 497.9733643299165 897.3543834245263 497.9733643299165L897.3543834245263 497.9733643299165Q907.2418766664111 497.9733643299165 913.5162159227494 494.18712512350544Q919.7905551790876 490.37925026448636 922.6031900181358 485.42468581723995L922.6031900181358 485.42468581723995Q922.8411821968245 488.4753128349768 923.7066083011471 491.50430420010565Q924.5720344054696 494.5549312178425 925.6538170358727 496.45886864735206L925.6538170358727 496.45886864735206L939.3275494841686 496.45886864735206L939.3275494841686 495.24727210130055Q937.9645033698606 491.8937459470508 937.2072555285783 487.5233441202221Q936.4500076872962 483.1529422933933 936.4500076872962 478.1983778461469L936.4500076872962 478.1983778461469L936.4500076872962 441.69903189634465Q936.4500076872962 428.0036637954408 928.488087527529 421.0802549608606Q920.5478030203699 414.15684612628047 906.0951870781838 414.15684612628047L906.0951870781838 414.15684612628047Q891.6425711359976 414.15684612628047 883.161395313637 421.2749758343332Q874.6802194912763 428.3931055423859 874.6802194912763 437.89115703732557L874.6802194912763 437.89115703732557L874.6802194912763 438.2805987842707L888.7650293391254 438.2805987842707L888.7650293391254 437.89115703732557Q888.7650293391254 432.93659259007916 892.6810824611847 429.17198903627616Q896.5971355832442 425.4073854824732 905.7273809838467 425.4073854824732L905.7273809838467 425.4073854824732Q914.8359907318412 425.4073854824732 918.5789586330361 429.95087253016646Q922.300290881623 434.4727239252516 922.300290881623 441.69903189634465L922.300290881623 441.69903189634465L922.300290881623 447.1728520061846L904.1912496486742 447.1728520061846Q889.2842850017188 447.1728520061846 879.6347839385228 453.94481127250833Q869.9636472227186 460.71677053883207 869.9636472227186 472.8760073045634ZM884.1133640283917 472.1187594632812L884.1133640283917 472.1187594632812Q884.1133640283917 465.2818932391333 889.5871841382317 461.23602620142555Q895.0610042480716 457.2117948163258 905.7273809838467 457.2117948163258L905.7273809838467 457.2117948163258L922.300290881623 457.2117948163258L922.300290881623 468.70032635120725Q922.300290881623 475.1693864810181 915.5283316152993 480.94610572737093Q908.7563723489756 486.72282497372373 900.3833747896551 486.72282497372373L900.3833747896551 486.72282497372373Q892.0320128829428 486.72282497372373 888.0726884556674 482.8500431568805Q884.1133640283917 478.9556256874291 884.1133640283917 472.1187594632812ZM959.1241716205462 379.6263445638119L959.1241716205462 496.45886864735206L973.2522527736113 496.45886864735206L973.2522527736113 379.6263445638119L959.1241716205462 379.6263445638119ZM985.1302260554379 416.45022530273513L985.1302260554379 427.2464159541586L1030.7598174058426 427.2464159541586L1030.7598174058426 416.45022530273513L985.1302260554379 416.45022530273513ZM999.4313924293675 422.98419239037014L999.4313924293675 476.6838821635825Q999.4313924293675 488.0858710880317 1004.6455847079106 493.4082416296152Q1009.8381413338458 498.7306121711987 1018.6005806401114 498.7306121711987L1018.6005806401114 498.7306121711987Q1022.4084554991304 498.7306121711987 1025.5888964325159 498.05990694034875Q1028.7909730185092 497.3675660568907 1030.7598174058426 496.45886864735206L1030.7598174058426 496.45886864735206L1030.7598174058426 484.9054301546464Q1028.6395234502525 485.6626779959287 1026.5841364524867 486.117026700698Q1024.5287494547206 486.5713754054673 1022.4084554991304 486.5713754054673L1022.4084554991304 486.5713754054673Q1017.8433327988291 486.5713754054673 1015.7014031906309 484.2779962290126Q1013.5811092350408 482.006252705166 1013.5811092350408 476.6838821635825L1013.5811092350408 476.6838821635825L1013.5811092350408 396.65360316635747L999.4313924293675 396.65360316635747L999.4313924293675 420.6908132139155L999.4313924293675 422.98419239037014ZM1045.8182316210546 379.6263445638119L1045.8182316210546 496.45886864735206L1059.9679484267276 496.45886864735206L1059.9679484267276 439.8600014246593Q1062.8671258762083 434.0832821783065 1068.0380468495355 430.4268568875438Q1073.2089678228622 426.7920672493892 1079.980927089186 426.7920672493892L1079.980927089186 426.7920672493892Q1087.877940291129 426.7920672493892 1092.1834351601337 430.9244768975293Q1096.488930029138 435.07852219827737 1096.488930029138 444.6631163036493L1096.488930029138 444.6631163036493L1096.488930029138 496.45886864735206L1110.6386468348114 496.45886864735206L1110.6386468348114 444.8145658719057Q1110.6386468348114 428.6960046788988 1103.4339745163265 421.7942314969267Q1096.2509378504492 414.9140939675627 1085.0653054520808 414.9140939675627L1085.0653054520808 414.9140939675627Q1077.3197418183945 414.9140939675627 1070.7641390781514 418.0296279431237Q1064.2301719905163 421.1667975712929 1059.9679484267276 426.3377185446199L1059.9679484267276 426.3377185446199L1059.9679484267276 379.6263445638119L1045.8182316210546 379.6263445638119ZM1124.9398132087408 516.0824055628652L1124.9398132087408 528.1118284129482Q1127.060107164331 528.8690762542304 1129.4183932986098 529.2368823485675Q1131.776679432889 529.6263240955127 1134.8273064506257 529.6263240955127L1134.8273064506257 529.6263240955127Q1143.9359161986204 529.6263240955127 1150.2318911075668 523.6981552809034Q1156.5062303639047 517.7483508136861 1160.292469570316 507.10360973051905L1160.292469570316 507.10360973051905L1192.7892197876267 416.45022530273513L1179.3967508232354 416.45022530273513L1161.7420582950563 469.06813244554434Q1160.7468182750854 472.1187594632812 1159.8813921707629 474.77994473407296Q1159.0159660664403 477.4411300048647 1158.3236251829821 479.73450918131937L1158.3236251829821 479.73450918131937L1157.8692764782127 479.73450918131937Q1157.2634782051873 477.4411300048647 1156.4196877534728 474.77994473407296Q1155.5758973017582 472.1187594632812 1154.515750323963 469.06813244554434L1154.515750323963 469.06813244554434L1135.5845542919078 416.45022530273513L1121.8891861910042 416.45022530273513L1151.703115484915 496.06942690040694L1151.703115484915 496.1559695108392Q1147.28944235287 509.46189586479795 1143.3301179255945 513.4644915972896Q1139.392429150927 517.4454516771732 1134.0484229567355 517.4454516771732L1134.0484229567355 517.4454516771732Q1131.776679432889 517.4454516771732 1129.3318506881778 517.0776455828361Q1126.9086575960746 516.688203835891 1124.9398132087408 516.0824055628652L1124.9398132087408 516.0824055628652ZM1237.6615632967491 465.2818932391333L1237.6615632967491 466.19059064867196Q1237.6615632967491 481.2490048638838 1248.6741104742532 489.98980851754123Q1259.7082933043653 498.7306121711987 1277.9687841055706 498.7306121711987L1277.9687841055706 498.7306121711987Q1296.2292749067756 498.7306121711987 1306.8740159899426 489.98980851754123Q1317.5187570731096 481.2490048638838 1317.5187570731096 467.5536367629799L1317.5187570731096 467.5536367629799Q1317.5187570731096 453.85826866207606 1309.4486586503021 446.3290615544701Q1301.4001958801027 438.79985444686423 1283.5940537836668 433.7803830417936L1283.5940537836668 433.7803830417936Q1265.809547339839 428.760911636723 1260.0977350513103 424.58523068336683Q1254.3859227627818 420.3879140774026 1254.3859227627818 413.1616061063096L1254.3859227627818 413.1616061063096Q1254.3859227627818 405.17805029393435 1259.946285483054 400.5480206358088Q1265.4850125507182 395.8963553250753 1277.211536264288 395.8963553250753L1277.211536264288 395.8963553250753Q1288.9164243252503 395.8963553250753 1294.8445931398596 401.30526847709103Q1300.794397607077 406.7141816291068 1300.794397607077 415.51989224058843L1300.794397607077 415.51989224058843L1300.794397607077 416.45022530273513L1315.3984631175194 416.45022530273513L1315.3984631175194 415.51989224058843Q1315.3984631175194 401.52162500317166 1305.0566211708651 392.4779222130013Q1294.6931435716033 383.434219422831 1277.211536264288 383.434219422831L1277.211536264288 383.434219422831Q1259.7082933043653 383.434219422831 1249.8208000624804 392.023573508232Q1239.9333068205956 400.612927593633 1239.9333068205956 413.5510478532547L1239.9333068205956 413.5510478532547Q1239.9333068205956 426.48916811287637 1247.4625139282016 433.5207552104968Q1254.9917210358076 440.5523423081173 1273.1007622687562 445.80980589187664L1273.1007622687562 445.80980589187664Q1290.517462618247 450.8292772969472 1296.791801874585 455.3943999972485Q1303.0661411309234 459.93788704494176 1303.0661411309234 467.5536367629799L1303.0661411309234 467.5536367629799Q1303.0661411309234 475.9266343223003 1296.5970810011127 481.09755529562733Q1290.14965652391 486.26847626895443 1277.9687841055706 486.26847626895443L1277.9687841055706 486.26847626895443Q1265.809547339839 486.26847626895443 1259.0375880735155 481.2490048638838Q1252.2656288071917 476.2295334588132 1252.2656288071917 466.19059064867196L1252.2656288071917 466.19059064867196L1252.2656288071917 465.2818932391333L1237.6615632967491 465.2818932391333ZM1330.067435585786 455.24295042899206L1330.067435585786 457.66614352109514Q1330.067435585786 475.77518475404383 1339.9982001328872 487.2637162889253Q1349.928964679988 498.7306121711987 1368.55726157553 498.7306121711987L1368.55726157553 498.7306121711987Q1379.9592504999791 498.7306121711987 1387.9211706597466 493.79768337656037Q1395.8614551669057 488.8431189293139 1399.6693300259249 483.1529422933933L1399.6693300259249 483.1529422933933L1390.5390846253222 475.9266343223003Q1387.120651513248 480.4917570226016 1381.6468314034082 483.82364752424326Q1376.1730112935684 487.1771736784931 1368.55726157553 487.1771736784931L1368.55726157553 487.1771736784931Q1356.2465752415424 487.1771736784931 1350.3833133847575 478.6310908983082Q1344.520051527972 470.0633724655152 1344.520051527972 457.66614352109514L1344.520051527972 457.66614352109514L1344.520051527972 455.24295042899206Q1344.520051527972 442.82408583196394 1350.0804142482443 434.278003051779Q1355.6191413159086 425.71028461898607 1366.8913163247094 425.71028461898607L1366.8913163247094 425.71028461898607Q1376.1730112935684 425.71028461898607 1381.1059400882068 431.81153865445987Q1386.0605045354532 437.89115703732557 1386.0605045354532 446.5670537331588L1386.0605045354532 446.5670537331588L1386.0605045354532 448.3844485522361L1338.7433322816191 448.3844485522361L1338.7433322816191 459.6349879084289L1400.2751282989507 459.6349879084289L1400.2751282989507 453.85826866207606Q1400.2751282989507 435.5977778608709 1391.4477820348607 424.88812981987974Q1382.642071423379 414.15684612628047 1366.2855180516835 414.15684612628047L1366.2855180516835 414.15684612628047Q1349.928964679988 414.15684612628047 1339.9982001328872 425.6453776611619Q1330.067435585786 437.13390919604336 1330.067435585786 455.24295042899206L1330.067435585786 455.24295042899206ZM1418.2327199636425 379.6263445638119L1418.2327199636425 496.45886864735206L1432.382436769316 496.45886864735206L1432.382436769316 379.6263445638119L1418.2327199636425 379.6263445638119ZM1450.7078345283453 455.24295042899206L1450.7078345283453 457.66614352109514Q1450.7078345283453 475.77518475404383 1460.638599075446 487.2637162889253Q1470.569363622547 498.7306121711987 1489.1976605180894 498.7306121711987L1489.1976605180894 498.7306121711987Q1500.5996494425385 498.7306121711987 1508.5615696023056 493.79768337656037Q1516.5018541094646 488.8431189293139 1520.3097289684838 483.1529422933933L1520.3097289684838 483.1529422933933L1511.1794835678816 475.9266343223003Q1507.7610504558074 480.4917570226016 1502.2872303459676 483.82364752424326Q1496.7917745835193 487.1771736784931 1489.1976605180894 487.1771736784931L1489.1976605180894 487.1771736784931Q1476.8653385314933 487.1771736784931 1471.0237123273164 478.6310908983082Q1465.1604504705315 470.0633724655152 1465.1604504705315 457.66614352109514L1465.1604504705315 457.66614352109514L1465.1604504705315 455.24295042899206Q1465.1604504705315 442.82408583196394 1470.7208131908037 434.278003051779Q1476.2595402584675 425.71028461898607 1487.5317152672687 425.71028461898607L1487.5317152672687 425.71028461898607Q1496.7917745835193 425.71028461898607 1501.7463390307657 431.81153865445987Q1506.6792678254042 437.89115703732557 1506.6792678254042 446.5670537331588L1506.6792678254042 446.5670537331588L1506.6792678254042 448.3844485522361L1459.3837312241785 448.3844485522361L1459.3837312241785 459.6349879084289L1520.9155272415096 459.6349879084289L1520.9155272415096 453.85826866207606Q1520.9155272415096 435.5977778608709 1512.08818097742 424.88812981987974Q1503.2608347133305 414.15684612628047 1486.9042813416345 414.15684612628047L1486.9042813416345 414.15684612628047Q1470.569363622547 414.15684612628047 1460.638599075446 425.6453776611619Q1450.7078345283453 437.13390919604336 1450.7078345283453 455.24295042899206L1450.7078345283453 455.24295042899206ZM1533.4642057541864 455.24295042899206L1533.4642057541864 457.66614352109514Q1533.4642057541864 475.77518475404383 1543.3084276908548 487.2637162889253Q1553.1742852801317 498.7306121711987 1570.4395360613657 498.7306121711987L1570.4395360613657 498.7306121711987Q1586.4066476861162 498.7306121711987 1594.6931026350044 490.09798678058155Q1602.9795575838925 481.4653613899644 1602.9795575838925 470.8206203067974L1602.9795575838925 470.8206203067974L1602.9795575838925 470.4528142124604L1589.2841894829885 470.4528142124604L1589.2841894829885 470.8206203067974Q1589.2841894829885 477.28968043660825 1584.8056093931195 482.24424488385466Q1580.3270293032506 487.1771736784931 1570.4395360613657 487.1771736784931L1570.4395360613657 487.1771736784931Q1558.8644619160523 487.1771736784931 1553.3906418062124 478.6310908983082Q1547.9168216963722 470.0633724655152 1547.9168216963722 457.66614352109514L1547.9168216963722 457.66614352109514L1547.9168216963722 455.24295042899206Q1547.9168216963722 442.82408583196394 1553.3906418062124 434.278003051779Q1558.8644619160523 425.71028461898607 1570.4395360613657 425.71028461898607L1570.4395360613657 425.71028461898607Q1580.3270293032506 425.71028461898607 1584.8056093931195 430.66484906623253Q1589.2841894829885 435.5977778608709 1589.2841894829885 442.06683799068173L1589.2841894829885 442.06683799068173L1589.2841894829885 442.45627973762686L1602.9795575838925 442.45627973762686L1602.9795575838925 442.06683799068173Q1602.9795575838925 431.42209690751474 1594.6931026350044 422.7894715168976Q1586.4066476861162 414.15684612628047 1570.4395360613657 414.15684612628047L1570.4395360613657 414.15684612628047Q1553.1742852801317 414.15684612628047 1543.3084276908548 425.6453776611619Q1533.4642057541864 437.13390919604336 1533.4642057541864 455.24295042899206L1533.4642057541864 455.24295042899206ZM1608.237021167652 416.45022530273513L1608.237021167652 427.2464159541586L1653.8666125180566 427.2464159541586L1653.8666125180566 416.45022530273513L1608.237021167652 416.45022530273513ZM1622.5381875415815 422.98419239037014L1622.5381875415815 476.6838821635825Q1622.5381875415815 488.0858710880317 1627.7523798201246 493.4082416296152Q1632.9449364460597 498.7306121711987 1641.7073757523253 498.7306121711987L1641.7073757523253 498.7306121711987Q1645.5152506113445 498.7306121711987 1648.69569154473 498.05990694034875Q1651.8977681307229 497.3675660568907 1653.8666125180566 496.45886864735206L1653.8666125180566 496.45886864735206L1653.8666125180566 484.9054301546464Q1651.7463185624665 485.6626779959287 1649.6909315647008 486.117026700698Q1647.6355445669346 486.5713754054673 1645.5152506113445 486.5713754054673L1645.5152506113445 486.5713754054673Q1640.9501279110432 486.5713754054673 1638.808198302845 484.2779962290126Q1636.687904347255 482.006252705166 1636.687904347255 476.6838821635825L1636.687904347255 476.6838821635825L1636.687904347255 396.65360316635747L1622.5381875415815 396.65360316635747L1622.5381875415815 420.6908132139155L1622.5381875415815 422.98419239037014ZM1669.6173676167268 416.45022530273513L1669.6173676167268 496.45886864735206L1683.7670844223999 496.45886864735206L1683.7670844223999 416.45022530273513L1669.6173676167268 416.45022530273513ZM1667.8648797554733 392.26156568692073L1667.8648797554733 392.26156568692073Q1667.8648797554733 395.83144836725114 1670.1582589319282 398.25464145935416Q1672.4300024557747 400.6994702040653 1676.6922260195633 400.6994702040653L1676.6922260195633 400.6994702040653Q1680.9544495833516 400.6994702040653 1683.226193107198 398.25464145935416Q1685.519572283653 395.83144836725114 1685.519572283653 392.26156568692073L1685.519572283653 392.26156568692073Q1685.519572283653 388.6700473539822 1683.226193107198 386.2468542618792Q1680.9544495833516 383.8020255171681 1676.6922260195633 383.8020255171681L1676.6922260195633 383.8020255171681Q1672.4300024557747 383.8020255171681 1670.1582589319282 386.2468542618792Q1667.8648797554733 388.6700473539822 1667.8648797554733 392.26156568692073ZM1702.1790247918611 455.24295042899206L1702.1790247918611 457.66614352109514Q1702.1790247918611 475.77518475404383 1712.434324128083 487.2637162889253Q1722.711259116913 498.7306121711987 1739.889967287715 498.7306121711987L1739.889967287715 498.7306121711987Q1757.0903111111252 498.7306121711987 1767.367246099955 487.2637162889253Q1777.622545436177 475.77518475404383 1777.622545436177 457.66614352109514L1777.622545436177 457.66614352109514L1777.622545436177 455.24295042899206Q1777.622545436177 437.13390919604336 1767.367246099955 425.6453776611619Q1757.0903111111252 414.15684612628047 1739.889967287715 414.15684612628047L1739.889967287715 414.15684612628047Q1722.711259116913 414.15684612628047 1712.434324128083 425.6453776611619Q1702.1790247918611 437.13390919604336 1702.1790247918611 455.24295042899206L1702.1790247918611 455.24295042899206ZM1716.6316407340473 457.66614352109514L1716.6316407340473 455.24295042899206Q1716.6316407340473 442.82408583196394 1722.4732669382247 434.278003051779Q1728.3365287950096 425.71028461898607 1739.889967287715 425.71028461898607L1739.889967287715 425.71028461898607Q1751.465041433029 425.71028461898607 1757.306667637206 434.278003051779Q1763.1699294939908 442.82408583196394 1763.1699294939908 455.24295042899206L1763.1699294939908 455.24295042899206L1763.1699294939908 457.66614352109514Q1763.1699294939908 470.0633724655152 1757.306667637206 478.6310908983082Q1751.465041433029 487.1771736784931 1739.889967287715 487.1771736784931L1739.889967287715 487.1771736784931Q1728.3365287950096 487.1771736784931 1722.4732669382247 478.6310908983082Q1716.6316407340473 470.0633724655152 1716.6316407340473 457.66614352109514L1716.6316407340473 457.66614352109514ZM1795.3421449221805 416.45022530273513L1795.3421449221805 496.45886864735206L1809.491861727854 496.45886864735206L1809.491861727854 439.8600014246593Q1812.3910391773343 434.0832821783065 1817.5619601506614 430.4268568875438Q1822.7328811239881 426.7920672493892 1829.504840390312 426.7920672493892L1829.504840390312 426.7920672493892Q1837.401853592255 426.7920672493892 1841.7073484612597 430.9244768975293Q1846.0128433302639 435.07852219827737 1846.0128433302639 444.6631163036493L1846.0128433302639 444.6631163036493L1846.0128433302639 496.45886864735206L1860.1625601359374 496.45886864735206L1860.1625601359374 444.8145658719057Q1860.1625601359374 428.6960046788988 1852.9578878174525 421.7942314969267Q1845.7748511515756 414.9140939675627 1833.6805213436683 414.9140939675627L1833.6805213436683 414.9140939675627Q1826.0864072782383 414.9140939675627 1819.8120680219 418.07289924833987Q1813.5377287655615 421.23170452911705 1809.188962591341 426.705524638957L1809.188962591341 426.705524638957L1808.7346138865719 426.705524638957L1808.1288156135456 416.45022530273513L1795.3421449221805 416.45022530273513Z " fill="#e0cd95" transform="matrix(0.47038899730735984,0,0,0.47038899730735984,0,86.14875273746719)"/></g></svg>